<?xml version="1.0" encoding="UTF-8"?>
<!DOCTYPE svg PUBLIC "-//W3C//DTD SVG 1.1//EN" "http://www.w3.org/Graphics/SVG/1.1/DTD/svg11.dtd">
<svg version="1.1" xmlns="http://www.w3.org/2000/svg" xmlns:xlink="http://www.w3.org/1999/xlink" x="0" y="0" width="223.611" height="155.388" viewBox="0, 0, 223.611, 155.388">
  <g id="Layer_1">
    <path d="M159.227,0.001 C158.964,0.007 158.698,0.024 158.429,0.053 C157.352,0.166 156.246,0.479 155.225,0.989 C154.205,1.527 153.269,2.208 152.476,3.086 C151.654,3.965 150.973,4.985 150.293,6.034 C150.01,6.005 149.698,5.977 149.131,5.864 C148.564,5.779 147.714,5.581 146.722,5.326 C145.701,5.043 144.538,4.674 143.688,4.362 C142.838,4.05 142.27,3.795 141.76,3.596 C141.25,3.426 140.741,3.341 140.089,3.199 C139.437,3.086 138.614,2.944 137.849,2.802 C137.112,2.661 136.403,2.547 135.637,2.405 C134.9,2.292 134.05,2.179 132.548,1.98 C131.045,1.81 128.863,1.584 127.191,1.386 C125.518,1.216 124.299,1.102 123.363,1.074 C122.4,1.045 121.691,1.102 121.181,1.216 C120.67,1.358 120.33,1.527 119.735,1.726 C119.111,1.896 118.234,2.122 117.497,2.377 C116.731,2.633 116.135,2.972 115.512,3.284 C115.115,3.086 114.689,2.859 114.406,2.717 C114.122,2.547 113.982,2.435 113.698,2.435 C113.443,2.406 113.074,2.492 112.762,2.662 C112.422,2.86 112.111,3.114 111.855,3.454 C111.6,3.794 111.373,4.22 111.004,4.532 C110.664,4.872 110.182,5.127 109.729,5.382 C109.247,5.609 108.794,5.892 108.454,6.119 C108.086,6.374 107.83,6.629 107.575,6.913 C107.32,7.224 107.094,7.565 106.753,7.849 C106.413,8.132 105.959,8.387 105.562,8.67 C105.137,8.954 104.741,9.266 104.344,9.861 C103.919,10.485 103.493,11.363 103.125,12.469 C102.728,13.546 102.387,14.879 102.274,15.984 C102.189,17.09 102.33,17.996 102.614,18.875 C102.897,19.782 103.351,20.633 104.372,21.908 C105.364,23.155 106.951,24.799 108.312,26.273 C109.673,27.719 110.835,28.995 112.252,30.384 C113.67,31.773 115.314,33.303 116.363,34.125 C117.383,34.947 117.808,35.089 118.233,35.401 C118.659,35.684 119.112,36.195 119.452,36.677 C119.821,37.159 120.104,37.641 120.444,38.095 C120.756,38.548 121.096,39.001 121.38,39.256 C121.663,39.511 121.862,39.568 122.089,39.653 C122.117,39.852 122.144,40.021 122.314,40.248 C122.456,40.446 122.711,40.645 122.966,40.872 C122.91,40.985 122.854,41.127 122.911,41.382 C122.967,41.609 123.138,41.977 123.308,42.346 C122.797,42.828 122.286,43.309 121.663,44.046 C121.039,44.783 120.274,45.776 119.537,46.768 C118.573,46.768 117.61,46.797 116.703,46.655 C115.824,46.514 115.002,46.23 113.074,45.152 C111.175,44.104 108.141,42.29 106.015,41.326 C103.918,40.334 102.67,40.192 101.905,40.22 C101.111,40.249 100.771,40.447 100.516,40.73 C100.289,41.013 100.148,41.382 100.176,41.779 C100.205,42.204 100.403,42.629 100.573,43.055 C99.836,43.196 99.071,43.31 98.448,43.509 C97.796,43.707 97.286,43.962 96.747,44.246 C95.5,43.905 94.252,43.594 92.268,42.8 C90.312,42.006 87.618,40.759 85.266,39.993 C82.885,39.256 80.816,39.029 78.775,38.972 C76.734,38.944 74.721,39.087 72.737,39.398 C70.724,39.739 68.739,40.277 66.954,40.957 C65.168,41.637 63.61,42.459 62.136,43.31 C60.662,44.188 59.3,45.095 58.223,45.917 C57.146,46.767 56.353,47.562 55.333,48.271 C54.313,49.008 53.065,49.631 52.129,50.254 C51.166,50.878 50.485,51.445 49.55,52.012 C48.586,52.579 47.367,53.174 46.091,53.741 C44.844,54.308 43.511,54.876 42.406,55.613 C41.329,56.321 40.507,57.199 39.656,58.078 C40.62,57.284 41.555,56.462 42.491,55.896 C43.426,55.3 44.334,54.932 45.27,54.592 C44.277,55.3 43.257,56.01 42.435,56.747 C41.613,57.512 40.989,58.248 40.337,58.985 C39.685,59.694 39.005,60.346 37.985,61.083 C36.936,61.791 35.518,62.586 34.072,63.379 C35.064,63.039 36.028,62.67 36.964,62.273 C37.928,61.877 38.834,61.423 39.741,60.97 C39.118,61.48 38.524,61.962 37.333,62.755 C36.114,63.549 34.327,64.626 32.542,65.732 C34.412,64.938 36.284,64.145 37.503,63.521 C38.722,62.926 39.289,62.501 39.855,62.076 C39.09,62.841 38.324,63.605 37.559,64.229 C36.793,64.824 36.057,65.278 35.036,65.93 C33.987,66.61 32.626,67.517 31.266,68.424 C31.918,68.027 32.598,67.632 33.42,67.235 C34.271,66.866 35.292,66.497 36.284,66.129 C35.831,66.384 35.377,66.611 34.526,67.263 C33.704,67.915 32.485,68.963 31.408,70.437 C30.302,71.911 29.367,73.811 28.403,75.71 C29.339,74.35 30.274,72.988 31.153,72.053 C32.032,71.117 32.853,70.608 33.675,70.069 C32.967,71.09 32.286,72.109 31.833,73.441 C31.351,74.802 31.096,76.503 30.841,78.176 C31.493,76.078 32.145,74.009 32.854,72.507 C33.534,71.004 34.243,70.098 34.951,69.19 C34.611,69.956 34.243,70.749 33.79,71.968 C33.308,73.187 32.741,74.859 31.607,77.439 C30.473,79.99 28.771,83.449 27.212,85.972 C25.625,88.495 24.208,90.053 22.28,91.329 C20.381,92.604 17.971,93.568 15.59,94.56 C17.631,93.965 19.643,93.398 21.344,92.604 C23.017,91.839 24.378,90.875 25.881,89.089 C27.412,87.275 29.083,84.611 30.756,81.946 C30.104,83.279 29.452,84.583 28.488,86.284 C27.525,87.984 26.277,90.081 24.86,91.499 C23.443,92.888 21.883,93.625 19.813,94.305 C17.773,94.957 15.251,95.553 13.21,96.063 C11.169,96.573 9.61,96.97 8.391,97.509 C7.2,98.019 6.322,98.642 5.471,99.265 C6.803,98.528 8.136,97.82 9.582,97.367 C11.056,96.942 12.614,96.771 14.145,96.573 C15.675,96.346 17.207,96.092 18.709,95.808 C17.263,96.375 15.789,96.941 14.032,97.622 C12.274,98.274 10.233,99.039 7.824,99.691 C5.443,100.372 2.721,100.937 -0,101.533 C0.85,101.561 1.672,101.59 3.146,101.363 C4.592,101.136 6.689,100.655 8.503,100.286 C10.318,99.946 11.876,99.748 13.436,99.521 C12.699,99.777 11.963,100.031 11.112,100.456 C10.262,100.91 9.327,101.562 8.363,102.753 C7.797,103.448 7.221,104.326 6.642,105.264 C6.67,105.227 6.688,105.198 6.718,105.161 C7.54,104.112 8.929,102.695 10.119,101.93 C11.31,101.164 12.33,101.023 13.351,100.768 C14.371,100.513 15.42,100.116 17.631,99.067 C19.842,97.99 23.215,96.261 26.588,94.532 C24.519,95.666 22.451,96.8 20.637,97.934 C18.823,99.039 17.234,100.172 15.533,101.448 C13.804,102.723 11.962,104.113 10.091,105.53 C12.217,104.085 14.315,102.61 15.959,101.533 C17.575,100.427 18.708,99.719 19.871,99.01 C16.809,101.278 13.776,103.545 10.998,105.246 C8.22,106.947 5.697,108.082 3.174,109.216 C4.592,108.819 5.981,108.393 7.512,107.713 C9.071,107.033 10.714,106.098 12.302,105.19 C13.889,104.255 15.392,103.375 16.894,102.497 C15.222,103.715 13.55,104.936 11.991,106.381 C10.432,107.827 8.985,109.499 8.333,110.944 C7.653,112.39 7.767,113.638 7.881,114.885 C7.853,113.978 7.796,113.071 8.136,112.05 C8.448,111.058 9.128,109.924 10.46,108.762 C11.764,107.6 13.72,106.409 16.187,104.566 C18.653,102.752 21.628,100.314 24.633,97.876 C22.45,99.861 20.267,101.845 18.765,103.603 C17.234,105.36 16.356,106.862 15.505,108.365 C16.214,107.231 16.922,106.069 18.68,104.227 C20.437,102.412 23.244,99.86 26.051,97.337 C23.386,100.172 20.749,103.007 18.68,105.473 C16.61,107.939 15.109,110.065 13.635,112.163 C16.895,108.138 20.155,104.113 23.556,100.768 C26.986,97.395 30.558,94.731 34.129,92.038 C32.457,93.398 30.812,94.759 29.31,96.091 C27.836,97.423 26.532,98.727 25.257,100.031 C27.44,97.99 29.594,95.949 31.862,94.333 C34.101,92.689 36.426,91.471 38.637,90.025 C40.819,88.608 42.916,86.991 44.106,85.46 C45.297,83.958 45.61,82.542 45.894,81.125 C45.979,81.266 46.034,81.379 46.289,81.747 C46.516,82.116 46.913,82.711 47.31,83.335 C47.905,84.129 48.501,84.923 49.408,85.802 C50.315,86.681 51.505,87.672 52.327,88.267 C53.121,88.834 53.547,89.033 54.369,89.713 C55.22,90.393 56.466,91.555 57.713,92.717 C57.543,93.568 57.373,94.418 56.977,95.524 C56.608,96.601 55.985,97.905 54.851,99.492 C53.689,101.051 51.959,102.866 50.911,103.972 C49.833,105.049 49.408,105.389 49.068,105.899 C48.699,106.41 48.387,107.117 48.302,107.883 C48.217,108.648 48.359,109.499 48.756,110.265 C49.153,111.058 49.804,111.738 50.626,112.22 C51.42,112.702 52.384,112.985 54.028,113.694 C55.672,114.374 57.997,115.508 60.86,116.897 C63.723,118.258 67.124,119.902 69.902,121.49 C72.68,123.077 74.863,124.635 76.11,125.571 C77.329,126.506 77.584,126.847 77.839,127.131 C78.094,127.414 78.349,127.64 78.633,127.753 C78.916,127.867 79.229,127.895 79.484,128.008 C79.711,128.15 79.908,128.378 80.106,128.605 C80.333,128.831 80.589,129.03 80.73,129.256 C80.844,129.455 80.815,129.653 80.673,129.823 C80.532,129.993 80.249,130.135 80.079,130.22 C79.909,130.334 79.852,130.39 79.767,130.56 C79.682,130.758 79.568,131.071 79.512,131.496 C79.455,131.921 79.456,132.46 79.484,132.885 C79.541,133.282 79.626,133.536 79.711,133.819 C79.541,133.734 79.399,133.679 79.229,133.679 C79.087,133.65 78.945,133.707 78.86,133.991 C78.775,134.274 78.746,134.784 79.143,135.804 C79.539,136.825 80.362,138.328 81.212,139.49 C82.063,140.624 82.97,141.417 83.565,141.785 C84.189,142.182 84.529,142.154 84.898,141.927 C85.266,141.672 85.691,141.246 86.202,140.112 C86.684,139.007 87.279,137.194 87.62,136.088 C87.988,134.983 88.1,134.585 88.1,134.131 C88.1,133.706 87.988,133.197 87.875,132.545 C87.761,131.893 87.675,131.099 87.59,130.305 C90.425,132.545 93.26,134.784 95.017,136.201 C96.775,137.618 97.399,138.242 97.739,138.639 C98.079,139.036 98.136,139.234 98.363,139.545 C98.618,139.886 99.099,140.312 99.439,140.624 C99.808,140.907 100.034,141.019 100.289,141.076 C100.516,141.133 100.744,141.077 101.112,141.275 C101.481,141.445 101.963,141.87 102.331,142.352 C102.7,142.862 102.955,143.43 103.21,143.997 C102.7,144.337 102.189,144.649 101.849,145.074 C101.509,145.527 101.338,146.037 101.338,146.717 C101.366,147.398 101.622,148.192 101.849,149.014 C101.736,149.184 101.594,149.353 101.622,149.722 C101.622,150.119 101.792,150.715 102.529,151.594 C103.266,152.472 104.598,153.605 105.845,154.314 C107.092,155.023 108.227,155.306 109.106,155.363 C109.985,155.448 110.609,155.306 110.949,155.108 C111.317,154.909 111.401,154.655 111.486,154.428 C111.118,151.707 110.721,148.957 110.353,146.235 C110.239,146.094 110.155,145.925 109.985,145.613 C109.815,145.273 109.587,144.733 109.389,144.138 C109.162,143.571 108.993,142.919 108.454,141.842 C107.887,140.765 106.98,139.29 106.441,138.1 C105.931,136.909 105.818,136.031 105.705,135.492 C105.563,134.954 105.42,134.727 105.023,134.416 C104.598,134.132 103.974,133.735 103.181,133.14 C102.387,132.573 101.48,131.836 100.573,131.099 C101.027,131.241 101.509,131.41 102.189,131.722 C102.898,132.062 103.833,132.573 104.711,133.31 C105.562,134.047 106.384,134.982 106.951,135.492 C107.49,136.002 107.773,136.088 108.17,136.173 C108.595,136.23 109.134,136.286 109.928,136.371 C110.693,136.456 111.742,136.57 113.499,136.853 C115.257,137.165 117.722,137.647 119.65,138.044 C121.577,138.441 122.938,138.753 124.1,139.093 C125.234,139.461 126.17,139.858 126.907,140.057 C127.672,140.283 128.239,140.283 129.004,140.084 C129.798,139.914 130.762,139.545 131.641,139.148 C132.492,138.723 133.256,138.298 133.767,137.845 C134.248,137.363 134.532,136.882 134.73,136.343 C134.929,135.833 135.042,135.237 135.07,134.528 C135.099,133.848 135.014,133.026 135.127,131.637 C135.241,130.248 135.552,128.265 135.864,126.252 C136.176,124.239 136.46,122.226 136.8,120.497 C137.14,118.796 137.537,117.379 137.764,116.273 C137.991,115.14 138.076,114.345 138.189,113.552 C138.472,113.07 138.785,112.588 139.295,112.021 C139.805,111.454 140.542,110.831 142.299,109.98 C144.057,109.102 146.863,107.967 148.507,107.259 C150.151,106.55 150.661,106.238 150.945,106.125 C151.257,106.012 151.37,106.097 151.569,106.182 C151.767,106.267 152.079,106.352 152.561,106.494 C153.014,106.636 153.666,106.835 154.119,106.948 C154.601,107.033 154.913,107.061 155.338,107.231 C155.791,107.401 156.387,107.713 157.351,108.167 C158.343,108.621 159.676,109.215 162.057,110.065 C164.467,110.887 167.897,111.937 169.711,112.532 C171.525,113.128 171.723,113.213 171.921,113.326 C172.148,113.44 172.346,113.523 172.573,113.552 C172.772,113.608 172.969,113.61 173.338,113.808 C173.706,114.035 174.217,114.488 174.671,114.97 C175.124,115.452 175.464,115.961 175.663,116.443 C175.861,116.925 175.862,117.379 175.38,118.229 C174.898,119.108 173.935,120.384 172.857,121.66 C171.752,122.907 170.561,124.154 169.399,125.146 C168.237,126.166 167.073,126.932 166.308,127.329 C165.543,127.725 165.203,127.782 164.807,127.896 C164.41,127.981 164.012,128.094 163.786,128.32 C163.559,128.547 163.531,128.86 163.531,129.171 C163.077,129.171 162.623,129.172 162.255,129.144 C161.886,129.115 161.574,129.058 161.376,128.944 C161.178,128.803 161.093,128.604 160.923,128.292 C160.782,127.981 160.555,127.584 160.271,127.329 C159.988,127.074 159.647,126.988 159.42,127.017 C159.165,127.045 159.024,127.186 158.769,127.271 C158.513,127.357 158.145,127.413 157.947,127.356 C157.777,127.328 157.777,127.187 157.692,127.102 C157.635,127.045 157.493,126.989 157.068,127.046 C156.643,127.074 155.934,127.158 155.509,127.414 C155.084,127.669 154.942,128.093 154.8,128.49 C154.602,128.462 154.375,128.406 154.176,128.35 C154.29,128.094 154.403,127.839 154.431,127.641 C154.431,127.442 154.346,127.329 154.204,127.301 C154.091,127.301 153.922,127.386 153.327,127.783 C152.703,128.18 151.625,128.888 150.775,129.596 C149.953,130.277 149.329,130.985 148.989,131.609 C148.649,132.233 148.563,132.742 148.705,133.167 C148.847,133.593 149.216,133.934 149.556,134.161 C149.896,134.387 150.236,134.529 151.2,134.643 C152.135,134.728 153.723,134.784 154.715,134.897 C155.679,135.011 156.047,135.181 156.444,135.209 C156.841,135.266 157.267,135.21 157.777,135.125 C158.315,135.068 158.939,134.955 159.393,134.955 C159.846,134.926 160.129,134.982 160.497,134.925 C160.866,134.869 161.292,134.699 161.887,134.643 C162.511,134.586 163.304,134.641 164.07,134.783 C164.835,134.897 165.571,135.095 166.223,135.18 C166.903,135.294 167.499,135.294 168.009,135.095 C168.519,134.925 168.945,134.529 169.314,134.104 C169.654,133.65 169.937,133.139 171.439,131.382 C172.942,129.624 175.663,126.621 177.193,124.948 C178.724,123.276 179.036,122.935 179.348,122.709 C179.66,122.51 179.972,122.425 180.539,121.887 C181.078,121.348 181.842,120.384 182.21,119.817 C182.579,119.278 182.523,119.137 182.495,118.91 C182.466,118.683 182.438,118.343 182.467,117.719 C182.495,117.096 182.608,116.188 182.58,115.225 C182.551,114.261 182.352,113.241 182.041,112.447 C181.729,111.654 181.275,111.086 180.595,110.52 C179.943,109.953 179.008,109.414 178.299,108.932 C177.591,108.45 177.081,108.025 176.344,107.288 C175.607,106.579 174.642,105.53 173.565,104.424 C172.488,103.347 171.298,102.185 170.363,101.25 C169.456,100.343 168.832,99.663 168.293,98.955 C167.754,98.218 167.301,97.424 166.847,96.63 C167.868,95.411 168.86,94.219 169.767,93.057 C170.645,91.923 171.439,90.847 172.034,89.713 C172.658,88.579 173.083,87.417 173.14,85.83 C173.225,84.271 172.97,82.286 172.8,80.698 C172.63,79.111 172.573,77.949 172.658,76.872 C172.715,75.795 172.913,74.831 173.65,73.301 C174.387,71.742 175.635,69.615 177.25,66.894 C178.866,64.201 180.878,60.941 182.295,58.9 C183.741,56.887 184.62,56.066 185.669,55.471 C186.718,54.904 187.909,54.535 189.127,54.167 C189.581,54.592 190.064,55.046 190.375,55.386 C190.659,55.726 190.829,55.952 191.027,56.123 C190.999,56.321 190.971,56.548 191.027,56.774 C191.084,57.086 191.225,57.426 191.452,57.596 C191.651,57.795 191.934,57.823 192.189,57.766 C192.416,57.738 192.671,57.625 192.898,57.426 L192.926,57.426 C193.181,57.596 193.464,57.766 193.748,57.851 C194.258,58.05 194.684,58.022 195.081,57.88 C195.506,57.767 195.902,57.512 196.157,57.398 C196.384,57.285 196.469,57.341 196.497,57.426 C196.525,57.483 196.498,57.624 196.526,57.766 C196.583,57.908 196.725,58.078 196.781,58.22 C196.838,58.362 196.837,58.475 196.809,58.56 C196.809,58.645 196.809,58.702 197.036,58.872 C197.291,59.042 197.774,59.325 198.284,59.609 C198.511,59.524 198.766,59.41 199.021,59.297 C199.361,59.524 199.701,59.779 200.325,60.091 C200.977,60.431 201.912,60.856 203.216,61.395 C203.358,61.451 203.528,61.537 203.698,61.594 C203.642,61.764 203.555,61.933 203.527,62.131 C203.47,62.443 203.471,62.84 203.669,63.18 C203.839,63.52 204.179,63.776 204.576,63.974 C205.001,64.173 205.456,64.286 206.051,64.314 C206.419,64.342 206.844,64.314 207.27,64.314 C207.156,64.626 207.071,64.967 207.1,65.307 C207.128,65.704 207.298,66.044 207.27,66.384 C207.27,66.696 207.1,67.007 206.93,67.291 C206.76,67.574 206.561,67.858 206.476,68.057 C206.391,68.283 206.391,68.396 206.448,68.396 C206.533,68.396 206.674,68.226 206.788,68.112 C206.901,67.999 207.015,67.942 207.1,67.942 C207.213,67.971 207.298,68.085 207.354,68.142 C207.44,68.17 207.496,68.141 207.582,68.112 C207.667,68.084 207.808,68.057 207.979,68.142 C208.149,68.227 208.374,68.425 208.601,68.624 C209.281,67.887 209.99,67.121 210.444,66.696 C210.897,66.271 211.124,66.214 211.323,66.129 C211.464,66.214 211.578,66.298 211.805,66.497 C212.003,66.667 212.316,66.95 212.571,67.148 C212.854,67.375 213.109,67.518 213.505,67.575 C213.874,67.631 214.356,67.575 214.781,67.49 C215.206,67.376 215.574,67.234 215.858,67.206 C216.141,67.149 216.368,67.206 216.68,67.206 C217.02,67.206 217.445,67.12 217.786,66.894 C218.097,66.667 218.324,66.298 218.522,65.93 C218.749,65.93 219.004,65.902 219.259,65.874 C219.543,65.846 219.827,65.817 220.28,65.562 C220.734,65.307 221.358,64.824 221.726,64.484 C222.066,64.144 222.151,63.917 222.151,63.662 C222.151,63.407 222.065,63.095 222.009,62.783 C221.924,62.471 221.868,62.189 221.953,61.934 C222.038,61.678 222.292,61.508 222.576,61.083 C222.859,60.686 223.228,60.063 223.427,59.581 C223.654,59.071 223.71,58.701 223.37,58.106 C223.001,57.511 222.237,56.717 221.783,56.15 C221.301,55.612 221.131,55.301 220.649,54.734 C220.196,54.139 219.431,53.288 218.382,52.097 C217.305,50.907 215.972,49.404 214.951,47.987 C213.931,46.569 213.222,45.237 212.769,44.358 C212.343,43.451 212.145,42.998 211.947,42.545 C211.748,42.12 211.578,41.666 211.408,41.354 C211.209,41.014 211.04,40.816 210.898,40.532 C210.756,40.277 210.613,39.993 210.387,39.426 C210.16,38.859 209.848,38.037 209.565,37.499 C209.253,36.932 208.97,36.648 208.658,36.365 C208.658,36.28 208.659,36.194 208.8,36.053 C208.97,35.911 209.282,35.685 209.594,35.458 C209.367,35.26 209.14,35.061 208.743,34.891 C208.318,34.721 207.751,34.551 207.382,34.409 C207.014,34.267 206.872,34.126 206.673,33.984 C206.475,33.814 206.249,33.615 205.994,33.473 C205.767,33.331 205.568,33.218 204.888,32.651 C204.236,32.084 203.102,31.035 201.968,30.015 C201.94,29.76 201.912,29.477 201.883,29.222 C201.373,28.825 200.863,28.456 200.438,28.314 C199.984,28.144 199.588,28.229 199.191,28.314 C199.078,28.201 198.964,28.116 198.624,27.861 C198.312,27.635 197.774,27.208 197.093,26.698 C196.413,26.216 195.619,25.65 195.081,25.14 C194.542,24.658 194.314,24.289 193.917,23.921 C193.521,23.581 193.011,23.241 192.586,22.872 C192.132,22.475 191.792,22.05 191.48,21.823 C191.168,21.596 190.885,21.597 190.658,21.88 C190.403,22.164 190.205,22.701 190.148,23.24 C190.063,23.75 190.147,24.26 190.204,24.771 C189.751,24.572 189.298,24.375 188.561,23.978 C187.824,23.61 186.803,23.014 185.896,22.22 C184.961,21.455 184.138,20.519 183.316,19.556 C183.685,20.491 184.053,21.455 184.393,22.475 C184.705,23.524 185.018,24.658 185.556,25.679 C186.095,26.671 186.86,27.606 187.654,28.513 C186.718,28.995 185.81,29.448 184.875,29.93 C184.421,29.363 183.997,28.796 182.58,27.18 C181.162,25.536 178.81,22.873 176.429,20.18 C177.648,21.88 178.866,23.58 179.688,24.828 C180.51,26.075 180.907,26.898 181.304,27.691 C180.056,26.387 178.81,25.055 177.79,24.148 C176.741,23.213 175.918,22.702 175.096,22.163 C175.294,22.503 175.493,22.815 175.692,23.212 C175.89,23.58 176.088,24.006 176.287,24.46 C174.954,23.128 173.593,21.823 172.431,20.887 C171.241,19.952 170.22,19.414 169.2,18.847 C170.532,19.867 171.836,20.86 172.97,21.88 C174.076,22.901 175.039,23.921 175.975,24.942 C174.331,23.751 172.687,22.532 171.1,21.908 C169.512,21.256 168.01,21.2 166.507,21.144 C167.783,21.37 169.03,21.596 170.079,21.936 C171.127,22.276 171.978,22.758 172.8,23.382 C173.594,23.977 174.331,24.742 174.926,25.479 C175.521,26.216 175.946,26.982 176.229,27.719 C176.513,28.456 176.655,29.193 176.796,29.93 C176.229,29.618 175.664,29.307 175.125,29.08 C174.558,28.825 174.048,28.626 173.509,28.456 C173.736,28.598 173.934,28.74 174.189,28.995 C174.444,29.25 174.728,29.618 175.04,29.987 C174.558,29.703 174.075,29.391 173.225,29.108 C172.375,28.824 171.156,28.542 169.909,28.258 C170.958,28.683 171.978,29.108 172.658,29.448 C173.367,29.816 173.736,30.157 174.076,30.469 C173.538,30.299 172.999,30.128 171.751,29.533 C170.533,28.937 168.605,27.861 166.677,26.812 C167.698,27.55 168.69,28.286 169.654,28.966 C170.589,29.646 171.467,30.299 172.346,30.923 C171.297,30.583 170.277,30.271 168.888,29.874 C167.499,29.449 165.769,28.995 163.813,28.513 C161.829,28.031 159.647,27.577 157.493,27.095 C159.505,27.832 161.518,28.541 163.162,29.193 C164.777,29.845 166.025,30.413 167.272,31.008 C166.308,30.668 165.345,30.326 164.353,30.1 C163.36,29.844 162.34,29.733 161.291,29.619 C162.17,29.846 163.021,30.072 164.24,30.526 C165.487,31.008 167.102,31.716 168.718,32.424 C168.349,32.311 168.01,32.198 167.131,31.915 C166.253,31.631 164.835,31.149 163.616,30.809 C162.397,30.468 161.376,30.298 160.327,30.1 C161.291,30.581 162.284,31.036 162.936,31.405 C163.616,31.773 163.984,32.056 164.38,32.312 C162.85,31.575 161.347,30.837 160.015,30.384 C158.683,29.93 157.549,29.761 156.387,29.619 C157.804,30.186 159.194,30.781 160.469,31.518 C161.773,32.226 162.935,33.077 164.125,33.927 C163.19,33.559 162.256,33.161 161.008,32.821 C159.761,32.453 158.23,32.141 158.287,32.197 C158.343,32.254 159.987,32.68 161.149,33.133 C162.311,33.587 162.963,34.04 163.644,34.522 C162.907,34.21 162.17,33.927 161.121,33.7 C160.101,33.473 158.769,33.331 157.465,33.161 C157.862,33.246 158.259,33.331 159.081,33.558 C159.903,33.813 161.121,34.238 161.915,34.607 C162.68,34.975 163.021,35.288 163.361,35.628 C162.681,35.401 161.972,35.175 161.433,35.033 C160.866,34.891 160.441,34.834 160.129,34.777 C159.818,34.72 159.59,34.692 159.448,34.607 C159.335,34.522 159.251,34.408 158.996,34.295 C158.74,34.153 158.258,34.012 157.89,33.927 C157.549,33.814 157.323,33.757 157.125,33.672 C156.927,33.587 156.785,33.474 156.643,33.417 C156.53,33.389 156.415,33.389 156.302,33.333 C156.217,33.276 156.133,33.19 156.076,32.963 C156.048,32.765 156.047,32.453 156.047,32.169 C156.019,31.914 156.019,31.688 155.962,31.518 C155.905,31.347 155.792,31.205 155.707,31.063 C155.65,30.893 155.65,30.724 155.65,30.441 C155.622,30.157 155.594,29.816 155.594,29.533 C155.594,29.278 155.622,29.137 155.65,28.91 C155.678,28.683 155.735,28.428 155.707,28.173 C155.707,27.918 155.651,27.663 155.594,27.464 C155.509,27.238 155.395,27.01 155.338,26.783 C155.281,26.556 155.282,26.302 155.282,26.076 C155.311,25.849 155.366,25.651 155.338,25.509 C155.338,25.367 155.225,25.309 155.14,25.252 C155.282,24.714 155.396,24.176 155.509,23.836 C155.623,23.496 155.707,23.354 155.792,23.212 L155.877,23.297 C155.962,23.382 156.132,23.553 156.387,23.751 C156.642,23.949 156.983,24.148 157.38,24.233 C157.777,24.318 158.23,24.289 158.542,24.204 C158.825,24.09 158.968,23.949 159.138,23.779 C159.308,23.637 159.506,23.496 159.705,23.439 C159.903,23.382 160.072,23.382 160.242,23.297 C160.412,23.212 160.554,23.043 160.639,22.844 C160.753,22.617 160.81,22.362 160.838,22.22 C160.838,22.05 160.837,21.993 160.894,21.936 C160.951,21.879 161.065,21.766 161.235,21.766 C161.405,21.738 161.631,21.794 161.773,21.766 C161.943,21.738 162.029,21.596 162.057,21.454 C162.114,21.341 162.114,21.228 162.142,21.171 C162.142,21.115 162.142,21.086 162.227,21.086 C162.284,21.086 162.396,21.086 162.51,21.114 C162.651,21.143 162.823,21.172 163.021,21.144 C163.191,21.144 163.418,21.086 163.588,20.944 C163.73,20.831 163.785,20.633 163.813,20.18 C163.87,19.754 163.843,19.046 163.843,18.337 C163.928,18.195 164.041,18.053 164.325,17.855 C164.608,17.657 165.061,17.429 165.429,17.004 C165.798,16.607 166.11,16.012 166.393,15.445 C166.818,15.502 167.216,15.531 167.556,15.502 C167.896,15.446 168.18,15.332 168.293,15.19 C168.435,15.077 168.406,14.964 168.463,14.793 C168.548,14.623 168.661,14.396 168.718,14.112 C168.746,13.857 168.718,13.517 168.69,13.206 C168.832,13.177 168.944,13.177 169.37,13.063 C169.795,12.95 170.504,12.724 171.042,12.526 C171.581,12.299 171.978,12.1 172.148,11.93 C172.347,11.76 172.318,11.647 172.034,11.59 C171.751,11.533 171.212,11.589 170.673,11.533 C170.163,11.504 169.625,11.392 169.115,11.307 C169.171,10.655 169.228,10.002 169.143,9.265 C169.086,8.528 168.916,7.678 168.576,6.828 C168.236,5.949 167.726,5.013 167.017,4.163 C166.337,3.341 165.458,2.548 164.522,1.868 C163.587,1.187 162.566,0.649 161.546,0.337 C160.781,0.082 160.016,-0.014 159.227,0.001 z M6.642,105.264 C5.887,106.221 5.602,106.857 5.329,107.458 C5.767,106.703 6.206,105.97 6.642,105.264 z M146.583,25.616 C146.656,25.632 146.692,25.727 146.777,26.046 C146.891,26.5 147.061,27.35 147.146,28.144 C147.232,28.966 147.26,29.703 147.374,30.327 C147.459,30.979 147.628,31.518 147.826,32.084 C148.025,32.68 148.28,33.275 148.45,33.757 C148.592,34.268 148.677,34.635 148.705,34.919 C148.762,35.202 148.79,35.429 149.017,35.883 C149.216,36.336 149.641,37.017 150.038,37.698 C149.499,37.556 148.96,37.443 148.62,37.301 C148.28,37.159 148.081,37.017 147.826,36.904 C147.599,36.762 147.26,36.648 147.034,36.535 C146.807,36.45 146.664,36.337 146.522,36.195 C146.381,36.053 146.211,35.882 146.041,35.741 C145.842,35.599 145.644,35.486 145.389,35.401 C145.134,35.316 144.879,35.231 144.709,35.146 C144.539,35.061 144.51,34.976 144.51,34.919 C144.51,34.834 144.539,34.778 144.539,34.551 C144.539,34.324 144.511,33.956 144.454,33.757 C144.426,33.531 144.369,33.474 144.369,33.333 C144.341,33.191 144.34,32.935 144.397,32.793 C144.454,32.623 144.595,32.51 144.652,32.396 C144.709,32.283 144.709,32.142 144.709,31.972 C144.681,31.802 144.652,31.602 144.624,31.46 C144.567,31.319 144.482,31.262 144.482,30.894 C144.454,30.525 144.51,29.846 144.482,29.137 C144.454,28.429 144.34,27.662 144.227,26.925 C144.596,26.755 144.963,26.586 145.247,26.416 C145.53,26.217 145.701,26.018 145.928,25.876 C146.126,25.735 146.353,25.65 146.495,25.622 C146.53,25.614 146.558,25.61 146.583,25.616 z M191.424,56.35 L191.594,56.435 C191.793,56.548 191.963,56.718 192.331,57.001 C192.388,57.058 192.444,57.087 192.501,57.144 C192.388,57.2 192.274,57.256 192.189,57.284 C192.047,57.313 191.962,57.313 191.877,57.284 C191.764,57.227 191.679,57.143 191.594,57.001 C191.509,56.888 191.453,56.69 191.424,56.52 L191.424,56.35 z M204.066,61.764 C205.2,62.217 206.505,62.727 207.809,63.237 C207.752,63.379 207.666,63.493 207.609,63.634 C207.383,63.663 207.156,63.691 206.9,63.719 C206.277,63.748 205.569,63.691 205.087,63.549 C204.577,63.436 204.265,63.237 204.123,63.01 C203.953,62.755 203.953,62.501 203.981,62.246 C203.981,62.076 204.038,61.905 204.066,61.764 z M76.393,93.993 C76.535,93.993 76.706,93.964 76.904,94.106 C77.103,94.248 77.329,94.56 77.556,95.155 C77.783,95.75 78.037,96.658 78.151,97.622 C78.264,98.585 78.236,99.635 78.066,100.74 C77.867,101.846 77.5,103.007 76.904,104.679 C76.309,106.352 75.486,108.507 74.607,110.35 C73.757,112.192 72.879,113.722 72,115.252 C71.745,115.167 71.489,115.083 71.149,114.885 C70.809,114.686 70.356,114.374 69.647,114.006 C68.91,113.637 67.918,113.241 66.983,112.759 C66.047,112.277 65.169,111.738 64.488,111.199 C63.836,110.661 63.354,110.122 63.127,109.584 C62.872,109.045 62.845,108.507 62.93,107.997 C63.015,107.487 63.241,107.004 63.524,106.494 C63.808,106.012 64.205,105.474 64.573,105.048 C64.97,104.595 65.366,104.226 65.82,103.915 C66.273,103.603 66.785,103.348 67.295,103.093 C67.777,102.838 68.231,102.611 69.138,101.789 C70.016,100.995 71.348,99.605 72.624,98.216 C73.9,96.827 75.146,95.41 76.393,93.993 z M96.406,94.617 C97.483,95.127 98.561,95.637 99.354,95.949 C100.148,96.289 100.658,96.402 101.395,96.686 C102.132,96.941 103.067,97.367 103.663,97.679 C104.286,97.991 104.57,98.217 104.854,98.416 C105.165,98.586 105.449,98.727 105.79,98.84 C106.13,98.925 106.526,99.011 106.894,99.125 C107.263,99.238 107.631,99.379 108.17,99.549 C108.709,99.719 109.445,99.946 110.522,100.144 C111.628,100.371 113.103,100.598 114.123,100.768 C115.144,100.91 115.681,100.994 116.191,101.051 C116.702,101.079 117.156,101.081 117.497,101.137 C117.837,101.222 118.063,101.363 118.233,101.448 C118.432,101.504 118.63,101.505 118.715,101.505 L118.8,101.505 C118.97,101.93 119.14,102.356 119.395,102.696 C119.65,103.036 120.019,103.29 120.501,103.46 C120.983,103.631 121.606,103.688 122.229,103.745 C122.286,104 122.343,104.226 122.457,104.509 C122.598,104.764 122.825,105.076 122.966,105.558 C123.136,106.012 123.25,106.692 123.448,107.486 C123.647,108.251 123.902,109.159 124.157,110.18 C124.384,111.2 124.583,112.333 124.696,113.552 C124.838,114.771 124.895,116.075 125.008,117.662 C125.093,119.221 125.234,121.036 125.376,122.709 C125.518,124.409 125.631,125.911 125.858,127.244 C126.056,128.576 126.34,129.682 126.595,130.532 C126.878,131.383 127.134,131.95 127.389,132.545 C127.247,132.857 127.106,133.197 126.964,133.509 C126.255,133.537 125.575,133.594 124.299,133.424 C123.024,133.254 121.181,132.856 119.622,132.516 C118.063,132.175 116.76,131.892 115.966,131.722 C115.172,131.552 114.859,131.495 114.576,131.382 C114.321,131.268 114.094,131.07 113.981,130.872 C113.868,130.674 113.839,130.446 113.811,130.248 C112.564,129.823 111.345,129.369 110.522,129.114 C109.7,128.859 109.304,128.802 108.879,128.717 C108.567,128.462 108.256,128.179 107.972,128.065 C107.717,127.924 107.49,127.924 107.263,127.953 C107.036,127.953 106.809,127.981 106.639,128.095 C106.497,128.18 106.441,128.349 106.384,128.547 C106.101,128.292 105.818,128.066 105.478,127.896 C105.137,127.754 104.74,127.697 104.314,127.471 C103.889,127.244 103.408,126.846 103.125,126.308 C102.842,125.741 102.728,125.062 102.671,124.466 C102.586,123.899 102.528,123.417 102.387,123.048 C102.245,122.651 102.019,122.339 101.792,122.197 C101.537,122.056 101.31,122.085 100.97,122.057 C100.658,122.028 100.289,121.972 99.949,121.887 C99.637,121.802 99.382,121.715 99.212,121.63 C99.042,121.574 98.958,121.49 98.845,121.405 C98.618,121.547 98.39,121.688 98.191,121.915 C97.993,122.141 97.795,122.425 97.597,122.624 C97.37,122.794 97.143,122.879 96.973,123.021 C96.803,123.162 96.689,123.332 96.576,123.445 C96.434,123.559 96.322,123.587 96.265,123.502 C96.208,123.389 96.209,123.191 96.18,123.021 C96.152,122.879 96.038,122.822 95.953,122.793 C95.868,122.765 95.783,122.821 95.244,123.218 C94.706,123.587 93.685,124.324 92.692,125.061 C90.85,123.729 89.037,122.397 87.959,121.49 C86.882,120.583 86.57,120.043 86.372,119.363 C86.201,118.654 86.145,117.748 86.287,116.5 C86.428,115.225 86.74,113.609 87.335,111.965 C87.931,110.35 88.81,108.734 89.575,107.6 C90.341,106.466 90.992,105.813 91.531,105.161 C92.069,104.481 92.466,103.773 93.062,102.469 C93.657,101.193 94.451,99.323 95.046,97.906 C95.613,96.517 96.009,95.553 96.406,94.617 z" fill="#000000" id="path877"/>
  </g>
</svg>
